<svg width="239" height="30" viewBox="0 0 239 30" fill="none" xmlns="http://www.w3.org/2000/svg">
<path fill-rule="evenodd" clip-rule="evenodd" d="M11.25 5.625C11.6686 5.625 12.0364 5.90248 12.1514 6.30495L13.1679 9.86269C13.6128 11.4199 14.8301 12.6372 16.3873 13.0821L19.9451 14.0986C20.3475 14.2136 20.625 14.5814 20.625 15C20.625 15.4186 20.3475 15.7864 19.9451 15.9014L16.3873 16.9179C14.8301 17.3628 13.6128 18.5801 13.1679 20.1373L12.1514 23.6951C12.0364 24.0975 11.6686 24.375 11.25 24.375C10.8314 24.375 10.4636 24.0975 10.3486 23.6951L9.33207 20.1373C8.88715 18.5801 7.66991 17.3628 6.11268 16.9179L2.55495 15.9014C2.15248 15.7864 1.875 15.4186 1.875 15C1.875 14.5814 2.15248 14.2136 2.55495 14.0986L6.11269 13.0821C7.66991 12.6372 8.88715 11.4199 9.33208 9.86268L10.3486 6.30495C10.4636 5.90248 10.8314 5.625 11.25 5.625Z" fill="white"/>
<path fill-rule="evenodd" clip-rule="evenodd" d="M22.5 1.875C22.9302 1.875 23.3052 2.16778 23.4095 2.58512L23.7331 3.87945C24.027 5.05507 24.9449 5.973 26.1205 6.26691L27.4149 6.59049C27.8322 6.69483 28.125 7.06981 28.125 7.5C28.125 7.93019 27.8322 8.30517 27.4149 8.40951L26.1205 8.73309C24.9449 9.027 24.027 9.94493 23.7331 11.1205L23.4095 12.4149C23.3052 12.8322 22.9302 13.125 22.5 13.125C22.0698 13.125 21.6948 12.8322 21.5905 12.4149L21.2669 11.1206C20.973 9.94493 20.0551 9.027 18.8795 8.73309L17.5851 8.40951C17.1678 8.30517 16.875 7.93019 16.875 7.5C16.875 7.06981 17.1678 6.69483 17.5851 6.59049L18.8795 6.26691C20.0551 5.973 20.973 5.05507 21.2669 3.87945L21.5905 2.58512C21.6948 2.16778 22.0698 1.875 22.5 1.875Z" fill="white"/>
<path fill-rule="evenodd" clip-rule="evenodd" d="M20.625 18.75C21.0285 18.75 21.3868 19.0082 21.5144 19.391L22.0072 20.8695C22.1938 21.4293 22.6332 21.8687 23.1931 22.0553L24.6715 22.5481C25.0543 22.6757 25.3125 23.034 25.3125 23.4375C25.3125 23.841 25.0543 24.1993 24.6715 24.3269L23.1931 24.8197C22.6332 25.0063 22.1938 25.4457 22.0072 26.0056L21.5144 27.484C21.3868 27.8668 21.0285 28.125 20.625 28.125C20.2215 28.125 19.8632 27.8668 19.7356 27.484L19.2428 26.0056C19.0562 25.4457 18.6168 25.0063 18.057 24.8197L16.5785 24.3269C16.1957 24.1993 15.9375 23.841 15.9375 23.4375C15.9375 23.034 16.1957 22.6757 16.5785 22.5481L18.057 22.0553C18.6168 21.8687 19.0562 21.4293 19.2428 20.8695L19.7356 19.391C19.8632 19.0082 20.2215 18.75 20.625 18.75Z" fill="white"/>
<path d="M46.968 25V24.52C47.464 24.488 47.832 24.424 48.072 24.328C48.328 24.232 48.496 24.04 48.576 23.752C48.672 23.464 48.72 23.032 48.72 22.456V10.552C48.72 9.96 48.672 9.528 48.576 9.256C48.496 8.968 48.328 8.776 48.072 8.68C47.832 8.568 47.464 8.504 46.968 8.488V8.008C47.432 8.024 48.032 8.04 48.768 8.056C49.504 8.072 50.24 8.08 50.976 8.08C51.76 8.08 52.488 8.072 53.16 8.056C53.848 8.04 54.4 8.024 54.816 8.008V8.488C54.32 8.504 53.944 8.568 53.688 8.68C53.432 8.776 53.264 8.968 53.184 9.256C53.104 9.528 53.064 9.96 53.064 10.552V22.456C53.064 23.032 53.104 23.464 53.184 23.752C53.28 24.04 53.448 24.232 53.688 24.328C53.944 24.424 54.32 24.488 54.816 24.52V25C54.4 24.968 53.848 24.952 53.16 24.952C52.488 24.936 51.76 24.928 50.976 24.928C50.24 24.928 49.504 24.936 48.768 24.952C48.032 24.952 47.432 24.968 46.968 25ZM36.744 25V24.52C37.24 24.488 37.608 24.424 37.848 24.328C38.104 24.232 38.272 24.04 38.352 23.752C38.448 23.464 38.496 23.032 38.496 22.456V10.552C38.496 9.96 38.448 9.528 38.352 9.256C38.272 8.968 38.104 8.776 37.848 8.68C37.608 8.568 37.24 8.504 36.744 8.488V8.008C37.176 8.024 37.752 8.04 38.472 8.056C39.192 8.072 39.96 8.08 40.776 8.08C41.48 8.08 42.176 8.072 42.864 8.056C43.568 8.04 44.144 8.024 44.592 8.008V8.488C44.096 8.504 43.72 8.568 43.464 8.68C43.208 8.776 43.04 8.968 42.96 9.256C42.88 9.528 42.84 9.96 42.84 10.552V22.456C42.84 23.032 42.88 23.464 42.96 23.752C43.056 24.04 43.224 24.232 43.464 24.328C43.72 24.424 44.096 24.488 44.592 24.52V25C44.144 24.968 43.568 24.952 42.864 24.952C42.176 24.936 41.48 24.928 40.776 24.928C39.96 24.928 39.192 24.936 38.472 24.952C37.752 24.952 37.176 24.968 36.744 25ZM41.04 16.696V16.216H50.52V16.696H41.04ZM61.9416 12.232C63.1416 12.232 64.1896 12.448 65.0856 12.88C65.9976 13.296 66.7016 13.984 67.1976 14.944C67.7096 15.904 67.9656 17.184 67.9656 18.784C67.9656 20.384 67.7096 21.664 67.1976 22.624C66.7016 23.584 65.9976 24.28 65.0856 24.712C64.1896 25.128 63.1416 25.336 61.9416 25.336C60.7576 25.336 59.7096 25.128 58.7976 24.712C57.9016 24.28 57.1976 23.584 56.6856 22.624C56.1736 21.664 55.9176 20.384 55.9176 18.784C55.9176 17.184 56.1736 15.904 56.6856 14.944C57.1976 13.984 57.9016 13.296 58.7976 12.88C59.7096 12.448 60.7576 12.232 61.9416 12.232ZM61.9416 12.712C61.3816 12.712 60.9096 13.192 60.5256 14.152C60.1576 15.096 59.9736 16.64 59.9736 18.784C59.9736 20.928 60.1576 22.48 60.5256 23.44C60.9096 24.384 61.3816 24.856 61.9416 24.856C62.5176 24.856 62.9896 24.384 63.3576 23.44C63.7256 22.48 63.9096 20.928 63.9096 18.784C63.9096 16.64 63.7256 15.096 63.3576 14.152C62.9896 13.192 62.5176 12.712 61.9416 12.712ZM74.0451 29.512C73.0051 29.512 72.0931 29.424 71.3091 29.248C70.5251 29.088 69.9171 28.84 69.4851 28.504C69.0531 28.184 68.8371 27.792 68.8371 27.328C68.8371 26.848 69.0611 26.408 69.5091 26.008C69.9571 25.624 70.6451 25.32 71.5731 25.096L71.7891 25.48C71.5171 25.752 71.3251 26.016 71.2131 26.272C71.1011 26.544 71.0451 26.808 71.0451 27.064C71.0451 27.72 71.3411 28.224 71.9331 28.576C72.5251 28.928 73.3411 29.104 74.3811 29.104C75.1011 29.104 75.7251 29 76.2531 28.792C76.7811 28.6 77.1891 28.32 77.4771 27.952C77.7651 27.584 77.9091 27.152 77.9091 26.656C77.9091 26.192 77.7331 25.8 77.3811 25.48C77.0451 25.16 76.3571 25 75.3171 25H73.9251C73.2371 25 72.6451 24.912 72.1491 24.736C71.6531 24.56 71.2691 24.312 70.9971 23.992C70.7411 23.672 70.6131 23.272 70.6131 22.792C70.6131 22.072 70.8931 21.464 71.4531 20.968C72.0131 20.456 72.7891 19.984 73.7811 19.552L73.9971 19.744C73.7571 19.888 73.5251 20.056 73.3011 20.248C73.0931 20.44 72.9891 20.696 72.9891 21.016C72.9891 21.528 73.2931 21.784 73.9011 21.784H76.3731C77.3331 21.784 78.1811 21.896 78.9171 22.12C79.6531 22.328 80.2291 22.68 80.6451 23.176C81.0771 23.656 81.2931 24.288 81.2931 25.072C81.2931 25.872 81.0371 26.608 80.5251 27.28C80.0131 27.952 79.2211 28.488 78.1491 28.888C77.0931 29.304 75.7251 29.512 74.0451 29.512ZM74.3571 19.888C73.3971 19.888 72.5411 19.752 71.7891 19.48C71.0531 19.208 70.4691 18.792 70.0371 18.232C69.6051 17.656 69.3891 16.928 69.3891 16.048C69.3891 15.168 69.6051 14.448 70.0371 13.888C70.4691 13.328 71.0531 12.912 71.7891 12.64C72.5411 12.368 73.3971 12.232 74.3571 12.232C75.3011 12.232 76.1491 12.368 76.9011 12.64C77.6531 12.912 78.2451 13.328 78.6771 13.888C79.1091 14.448 79.3251 15.168 79.3251 16.048C79.3251 16.928 79.1091 17.656 78.6771 18.232C78.2451 18.792 77.6531 19.208 76.9011 19.48C76.1491 19.752 75.3011 19.888 74.3571 19.888ZM74.3571 19.456C74.7091 19.456 74.9891 19.208 75.1971 18.712C75.4211 18.216 75.5331 17.328 75.5331 16.048C75.5331 14.768 75.4211 13.888 75.1971 13.408C74.9891 12.912 74.7091 12.664 74.3571 12.664C73.9891 12.664 73.7011 12.912 73.4931 13.408C73.2851 13.888 73.1811 14.768 73.1811 16.048C73.1811 17.328 73.2851 18.216 73.4931 18.712C73.7011 19.208 73.9891 19.456 74.3571 19.456ZM78.1731 14.32L77.6691 14.152C77.9251 13.496 78.3171 12.968 78.8451 12.568C79.3891 12.152 79.9811 11.944 80.6211 11.944C81.1491 11.944 81.5411 12.088 81.7971 12.376C82.0691 12.664 82.2051 13.04 82.2051 13.504C82.2051 13.968 82.0771 14.328 81.8211 14.584C81.5811 14.824 81.2931 14.944 80.9571 14.944C80.6691 14.944 80.4051 14.848 80.1651 14.656C79.9251 14.448 79.7891 14.144 79.7571 13.744C79.7251 13.328 79.8691 12.808 80.1891 12.184L80.3331 12.328C79.7411 12.536 79.2851 12.792 78.9651 13.096C78.6611 13.4 78.3971 13.808 78.1731 14.32ZM88.6581 12.568V13.072C88.3061 13.072 88.0101 13.096 87.7701 13.144C87.5301 13.176 87.3621 13.272 87.2661 13.432C87.1861 13.592 87.1941 13.848 87.2901 14.2L89.4981 21.328L89.1381 21.76L91.7061 12.568L92.2101 12.808L88.7781 25.024C88.4581 24.992 88.1301 24.976 87.7941 24.976C87.4741 24.976 87.1541 24.992 86.8341 25.024L83.0901 14.416C82.8661 13.776 82.6181 13.392 82.3461 13.264C82.0901 13.136 81.8741 13.072 81.6981 13.072V12.568C82.2741 12.616 82.8741 12.656 83.4981 12.688C84.1221 12.704 84.8021 12.712 85.5381 12.712C86.0341 12.712 86.5541 12.696 87.0981 12.664C87.6581 12.632 88.1781 12.6 88.6581 12.568ZM100.97 12.568V13.072C100.666 13.168 100.37 13.368 100.082 13.672C99.8101 13.96 99.5461 14.488 99.2901 15.256L96.1941 25.024C95.8741 24.992 95.5541 24.976 95.2341 24.976C94.9141 24.976 94.5861 24.992 94.2501 25.024L91.0581 15.976L91.7301 12.568C92.0821 12.584 92.4421 12.592 92.8101 12.592C93.1781 12.592 93.5381 12.584 93.8901 12.568L97.0101 22.192L96.7221 21.784L98.0901 17.416C98.3941 16.424 98.5061 15.616 98.4261 14.992C98.3621 14.368 98.1541 13.904 97.8021 13.6C97.4661 13.28 97.0421 13.104 96.5301 13.072V12.568C96.7541 12.584 97.0341 12.6 97.3701 12.616C97.7061 12.632 98.0341 12.648 98.3541 12.664C98.6741 12.664 98.9301 12.664 99.1221 12.664C99.4261 12.664 99.7621 12.656 100.13 12.64C100.498 12.624 100.778 12.6 100.97 12.568ZM104.433 25.168C103.697 25.168 103.089 25.032 102.609 24.76C102.129 24.472 101.777 24.096 101.553 23.632C101.329 23.168 101.217 22.672 101.217 22.144C101.217 21.472 101.369 20.92 101.673 20.488C101.993 20.056 102.401 19.712 102.897 19.456C103.393 19.184 103.913 18.96 104.457 18.784C105.001 18.608 105.521 18.44 106.017 18.28C106.513 18.104 106.913 17.904 107.217 17.68C107.521 17.44 107.673 17.136 107.673 16.768V14.776C107.673 14.424 107.617 14.096 107.505 13.792C107.409 13.472 107.225 13.216 106.953 13.024C106.697 12.816 106.337 12.712 105.873 12.712C105.585 12.712 105.305 12.752 105.033 12.832C104.761 12.912 104.521 13.04 104.313 13.216C104.825 13.392 105.201 13.656 105.441 14.008C105.697 14.36 105.825 14.752 105.825 15.184C105.825 15.776 105.617 16.248 105.201 16.6C104.801 16.936 104.321 17.104 103.761 17.104C103.153 17.104 102.681 16.912 102.345 16.528C102.025 16.144 101.865 15.68 101.865 15.136C101.865 14.656 101.985 14.256 102.225 13.936C102.465 13.6 102.817 13.296 103.281 13.024C103.745 12.752 104.305 12.552 104.961 12.424C105.617 12.296 106.313 12.232 107.049 12.232C107.801 12.232 108.489 12.312 109.113 12.472C109.753 12.616 110.297 12.912 110.745 13.36C111.097 13.728 111.321 14.176 111.417 14.704C111.513 15.232 111.561 15.904 111.561 16.72V23.2C111.561 23.6 111.593 23.88 111.657 24.04C111.737 24.184 111.857 24.256 112.017 24.256C112.161 24.256 112.297 24.216 112.425 24.136C112.553 24.056 112.681 23.968 112.809 23.872L113.073 24.28C112.721 24.568 112.305 24.792 111.825 24.952C111.345 25.096 110.825 25.168 110.265 25.168C109.625 25.168 109.121 25.088 108.753 24.928C108.401 24.752 108.145 24.52 107.985 24.232C107.841 23.944 107.761 23.624 107.745 23.272C107.393 23.848 106.953 24.312 106.425 24.664C105.897 25 105.233 25.168 104.433 25.168ZM106.425 23.44C106.681 23.44 106.905 23.392 107.097 23.296C107.305 23.184 107.497 23 107.673 22.744V17.752C107.545 17.976 107.369 18.192 107.145 18.4C106.937 18.592 106.713 18.792 106.473 19C106.233 19.192 106.001 19.408 105.777 19.648C105.569 19.888 105.393 20.176 105.249 20.512C105.121 20.832 105.057 21.224 105.057 21.688C105.057 22.312 105.185 22.76 105.441 23.032C105.697 23.304 106.025 23.44 106.425 23.44ZM122.251 12.232C122.795 12.232 123.227 12.352 123.547 12.592C123.867 12.816 124.099 13.112 124.243 13.48C124.387 13.832 124.459 14.184 124.459 14.536C124.459 15.192 124.267 15.72 123.883 16.12C123.515 16.52 123.027 16.72 122.419 16.72C121.779 16.72 121.291 16.576 120.955 16.288C120.619 15.984 120.451 15.584 120.451 15.088C120.451 14.592 120.555 14.184 120.763 13.864C120.987 13.544 121.259 13.272 121.579 13.048C121.339 13.016 121.107 13.048 120.883 13.144C120.627 13.208 120.387 13.328 120.163 13.504C119.939 13.68 119.747 13.888 119.587 14.128C119.427 14.368 119.299 14.632 119.203 14.92C119.123 15.192 119.083 15.472 119.083 15.76V22.528C119.083 23.296 119.251 23.816 119.587 24.088C119.939 24.36 120.491 24.496 121.243 24.496V25C120.875 24.984 120.331 24.968 119.611 24.952C118.891 24.92 118.147 24.904 117.379 24.904C116.691 24.904 115.995 24.92 115.291 24.952C114.603 24.968 114.091 24.984 113.755 25V24.496C114.283 24.496 114.651 24.376 114.859 24.136C115.083 23.896 115.195 23.44 115.195 22.768V15.184C115.195 14.464 115.091 13.936 114.883 13.6C114.675 13.248 114.299 13.072 113.755 13.072V12.568C114.267 12.616 114.763 12.64 115.243 12.64C115.963 12.64 116.643 12.616 117.283 12.568C117.939 12.504 118.539 12.416 119.083 12.304V14.272C119.275 13.856 119.523 13.496 119.827 13.192C120.147 12.888 120.507 12.656 120.907 12.496C121.323 12.32 121.771 12.232 122.251 12.232ZM130.33 8.656V12.568H132.922V13.048H130.33V22.864C130.33 23.264 130.402 23.552 130.546 23.728C130.69 23.888 130.906 23.968 131.194 23.968C131.434 23.968 131.682 23.888 131.938 23.728C132.21 23.568 132.458 23.296 132.682 22.912L133.066 23.152C132.762 23.808 132.338 24.336 131.794 24.736C131.266 25.136 130.57 25.336 129.706 25.336C129.178 25.336 128.706 25.264 128.29 25.12C127.89 24.992 127.554 24.792 127.282 24.52C126.93 24.168 126.698 23.736 126.586 23.224C126.49 22.696 126.442 22.016 126.442 21.184V13.048H124.522V12.568H126.442V9.568C127.194 9.568 127.882 9.496 128.506 9.352C129.146 9.208 129.754 8.976 130.33 8.656ZM138.408 12.232C139.112 12.232 139.72 12.312 140.232 12.472C140.744 12.632 141.12 12.784 141.36 12.928C141.92 13.28 142.256 13.056 142.368 12.256H142.872C142.84 12.72 142.816 13.28 142.8 13.936C142.784 14.576 142.776 15.44 142.776 16.528H142.272C142.208 15.936 142.064 15.352 141.84 14.776C141.632 14.2 141.32 13.728 140.904 13.36C140.488 12.976 139.944 12.784 139.272 12.784C138.84 12.784 138.472 12.912 138.168 13.168C137.88 13.424 137.736 13.776 137.736 14.224C137.736 14.704 137.88 15.128 138.168 15.496C138.456 15.864 138.824 16.216 139.272 16.552C139.736 16.888 140.2 17.248 140.664 17.632C141.176 18.016 141.632 18.408 142.032 18.808C142.448 19.192 142.776 19.616 143.016 20.08C143.272 20.528 143.4 21.072 143.4 21.712C143.4 22.432 143.184 23.064 142.752 23.608C142.32 24.152 141.752 24.576 141.048 24.88C140.344 25.184 139.56 25.336 138.696 25.336C138.168 25.336 137.704 25.28 137.304 25.168C136.92 25.072 136.6 24.944 136.344 24.784C136.104 24.672 135.888 24.576 135.696 24.496C135.52 24.416 135.344 24.36 135.168 24.328C135.008 24.312 134.872 24.384 134.76 24.544C134.648 24.704 134.56 24.912 134.496 25.168H133.992C134.024 24.656 134.048 24.032 134.064 23.296C134.08 22.56 134.088 21.584 134.088 20.368H134.592C134.688 21.232 134.864 21.992 135.12 22.648C135.392 23.304 135.752 23.824 136.2 24.208C136.648 24.576 137.176 24.76 137.784 24.76C138.056 24.76 138.304 24.712 138.528 24.616C138.768 24.504 138.96 24.336 139.104 24.112C139.264 23.888 139.344 23.6 139.344 23.248C139.344 22.544 139.12 21.96 138.672 21.496C138.224 21.016 137.672 20.496 137.016 19.936C136.504 19.504 136.024 19.08 135.576 18.664C135.144 18.248 134.784 17.792 134.496 17.296C134.224 16.8 134.088 16.24 134.088 15.616C134.088 14.896 134.288 14.288 134.688 13.792C135.104 13.28 135.64 12.896 136.296 12.64C136.952 12.368 137.656 12.232 138.408 12.232ZM163.52 8.008C163.456 8.76 163.408 9.488 163.376 10.192C163.36 10.896 163.352 11.432 163.352 11.8C163.352 12.12 163.36 12.432 163.376 12.736C163.392 13.04 163.408 13.288 163.424 13.48H162.872C162.696 12.232 162.408 11.248 162.008 10.528C161.624 9.808 161.144 9.304 160.568 9.016C160.008 8.712 159.384 8.56 158.696 8.56H158.048C157.616 8.56 157.28 8.6 157.04 8.68C156.816 8.744 156.664 8.888 156.584 9.112C156.52 9.336 156.488 9.688 156.488 10.168V22.84C156.488 23.304 156.52 23.656 156.584 23.896C156.664 24.12 156.816 24.272 157.04 24.352C157.28 24.416 157.616 24.448 158.048 24.448H159.032C159.656 24.448 160.248 24.288 160.808 23.968C161.384 23.632 161.896 23.072 162.344 22.288C162.792 21.488 163.128 20.408 163.352 19.048H163.904C163.856 19.592 163.832 20.296 163.832 21.16C163.832 21.544 163.84 22.088 163.856 22.792C163.872 23.496 163.92 24.232 164 25C163.184 24.968 162.264 24.952 161.24 24.952C160.216 24.936 159.304 24.928 158.504 24.928C158.088 24.928 157.56 24.928 156.92 24.928C156.28 24.928 155.584 24.936 154.832 24.952C154.08 24.952 153.32 24.96 152.552 24.976C151.784 24.976 151.064 24.984 150.392 25V24.52C150.888 24.488 151.256 24.424 151.496 24.328C151.752 24.232 151.92 24.04 152 23.752C152.096 23.464 152.144 23.032 152.144 22.456V10.552C152.144 9.96 152.096 9.528 152 9.256C151.92 8.968 151.752 8.776 151.496 8.68C151.256 8.568 150.888 8.504 150.392 8.488V8.008C151.08 8.024 151.8 8.04 152.552 8.056C153.32 8.056 154.072 8.064 154.808 8.08C155.56 8.08 156.256 8.08 156.896 8.08C157.552 8.08 158.088 8.08 158.504 8.08C159.24 8.08 160.072 8.08 161 8.08C161.944 8.064 162.784 8.04 163.52 8.008ZM159.896 16.216C159.896 16.216 159.896 16.296 159.896 16.456C159.896 16.616 159.896 16.696 159.896 16.696H155.768C155.768 16.696 155.768 16.616 155.768 16.456C155.768 16.296 155.768 16.216 155.768 16.216H159.896ZM160.592 13.048C160.528 13.96 160.496 14.656 160.496 15.136C160.512 15.616 160.52 16.056 160.52 16.456C160.52 16.856 160.528 17.296 160.544 17.776C160.56 18.256 160.6 18.952 160.664 19.864H160.112C160.032 19.288 159.864 18.76 159.608 18.28C159.352 17.8 159.008 17.416 158.576 17.128C158.144 16.84 157.616 16.696 156.992 16.696V16.216C157.456 16.216 157.864 16.12 158.216 15.928C158.568 15.72 158.864 15.456 159.104 15.136C159.36 14.816 159.568 14.472 159.728 14.104C159.888 13.736 159.992 13.384 160.04 13.048H160.592ZM171.215 12.568V13.072C170.895 13.072 170.663 13.144 170.519 13.288C170.391 13.432 170.407 13.632 170.567 13.888L176.855 23.296C177.031 23.536 177.223 23.784 177.431 24.04C177.639 24.296 177.879 24.448 178.151 24.496V25C177.879 24.984 177.471 24.968 176.927 24.952C176.383 24.92 175.839 24.904 175.295 24.904C174.687 24.904 174.071 24.92 173.447 24.952C172.839 24.968 172.383 24.984 172.079 25V24.496C172.399 24.496 172.623 24.424 172.751 24.28C172.895 24.136 172.887 23.936 172.727 23.68L166.439 14.272C166.199 13.888 165.983 13.608 165.791 13.432C165.599 13.24 165.383 13.12 165.143 13.072V12.568C165.447 12.584 165.911 12.608 166.535 12.64C167.159 12.656 167.775 12.664 168.383 12.664C168.927 12.664 169.463 12.656 169.991 12.64C170.535 12.608 170.943 12.584 171.215 12.568ZM170.255 19.36C170.255 19.36 170.263 19.408 170.279 19.504C170.311 19.6 170.335 19.696 170.351 19.792C170.367 19.872 170.375 19.912 170.375 19.912L169.775 20.704C169.263 21.36 168.975 21.968 168.911 22.528C168.863 23.088 168.999 23.552 169.319 23.92C169.639 24.272 170.079 24.472 170.639 24.52V25C170.335 24.984 169.943 24.976 169.463 24.976C168.983 24.96 168.519 24.952 168.071 24.952C167.623 24.936 167.255 24.928 166.967 24.928C166.615 24.928 166.311 24.936 166.055 24.952C165.799 24.952 165.551 24.968 165.311 25V24.52C165.711 24.344 166.079 24.112 166.415 23.824C166.767 23.52 167.143 23.112 167.543 22.6L170.255 19.36ZM177.383 12.568V13.048C177.047 13.176 176.687 13.408 176.303 13.744C175.935 14.064 175.551 14.464 175.151 14.944L172.535 18.112C172.535 18.112 172.519 18.072 172.487 17.992C172.471 17.896 172.455 17.8 172.439 17.704C172.423 17.608 172.415 17.56 172.415 17.56L173.399 16.288C173.863 15.728 174.143 15.208 174.239 14.728C174.335 14.248 174.255 13.864 173.999 13.576C173.759 13.272 173.351 13.096 172.775 13.048V12.568C173.255 12.584 173.767 12.6 174.311 12.616C174.855 12.632 175.327 12.64 175.727 12.64C176.079 12.64 176.383 12.632 176.639 12.616C176.911 12.6 177.159 12.584 177.383 12.568ZM183.815 12.328V26.92C183.815 27.688 183.999 28.2 184.367 28.456C184.751 28.712 185.271 28.84 185.927 28.84V29.344C185.495 29.328 184.895 29.304 184.127 29.272C183.359 29.256 182.551 29.248 181.703 29.248C181.095 29.248 180.487 29.256 179.879 29.272C179.287 29.304 178.839 29.328 178.535 29.344V28.84C179.047 28.84 179.407 28.72 179.615 28.48C179.823 28.256 179.927 27.816 179.927 27.16V15.208C179.927 14.488 179.823 13.96 179.615 13.624C179.407 13.272 179.031 13.096 178.487 13.096V12.592C178.999 12.64 179.495 12.664 179.975 12.664C180.711 12.664 181.399 12.64 182.039 12.592C182.679 12.528 183.271 12.44 183.815 12.328ZM187.487 12.232C188.303 12.232 189.023 12.456 189.647 12.904C190.287 13.336 190.791 14 191.159 14.896C191.543 15.776 191.735 16.888 191.735 18.232C191.735 19.496 191.591 20.576 191.303 21.472C191.031 22.368 190.639 23.104 190.127 23.68C189.631 24.256 189.039 24.68 188.351 24.952C187.679 25.208 186.951 25.336 186.167 25.336C185.575 25.336 185.023 25.248 184.511 25.072C184.015 24.912 183.623 24.648 183.335 24.28L183.575 23.968C183.719 24.192 183.919 24.36 184.175 24.472C184.431 24.584 184.703 24.64 184.991 24.64C185.647 24.64 186.167 24.416 186.551 23.968C186.951 23.504 187.239 22.832 187.415 21.952C187.591 21.072 187.679 20 187.679 18.736C187.679 17.344 187.599 16.264 187.439 15.496C187.279 14.712 187.063 14.16 186.791 13.84C186.519 13.52 186.199 13.36 185.831 13.36C185.319 13.36 184.855 13.56 184.439 13.96C184.039 14.344 183.815 14.872 183.767 15.544L183.719 14.536C184.055 13.768 184.551 13.192 185.207 12.808C185.863 12.424 186.623 12.232 187.487 12.232ZM201.634 12.232C202.178 12.232 202.61 12.352 202.93 12.592C203.25 12.816 203.482 13.112 203.626 13.48C203.77 13.832 203.842 14.184 203.842 14.536C203.842 15.192 203.65 15.72 203.266 16.12C202.898 16.52 202.41 16.72 201.802 16.72C201.162 16.72 200.674 16.576 200.338 16.288C200.002 15.984 199.834 15.584 199.834 15.088C199.834 14.592 199.938 14.184 200.146 13.864C200.37 13.544 200.642 13.272 200.962 13.048C200.722 13.016 200.49 13.048 200.266 13.144C200.01 13.208 199.77 13.328 199.546 13.504C199.322 13.68 199.13 13.888 198.97 14.128C198.81 14.368 198.682 14.632 198.586 14.92C198.506 15.192 198.466 15.472 198.466 15.76V22.528C198.466 23.296 198.634 23.816 198.97 24.088C199.322 24.36 199.874 24.496 200.626 24.496V25C200.258 24.984 199.714 24.968 198.994 24.952C198.274 24.92 197.53 24.904 196.762 24.904C196.074 24.904 195.378 24.92 194.674 24.952C193.986 24.968 193.474 24.984 193.138 25V24.496C193.666 24.496 194.034 24.376 194.242 24.136C194.466 23.896 194.578 23.44 194.578 22.768V15.184C194.578 14.464 194.474 13.936 194.266 13.6C194.058 13.248 193.682 13.072 193.138 13.072V12.568C193.65 12.616 194.146 12.64 194.626 12.64C195.346 12.64 196.026 12.616 196.666 12.568C197.322 12.504 197.922 12.416 198.466 12.304V14.272C198.658 13.856 198.906 13.496 199.21 13.192C199.53 12.888 199.89 12.656 200.29 12.496C200.706 12.32 201.154 12.232 201.634 12.232ZM210.512 12.232C211.92 12.232 213.024 12.648 213.824 13.48C214.624 14.312 215.024 15.68 215.024 17.584H207.32L207.296 17.128H211.76C211.792 16.344 211.76 15.624 211.664 14.968C211.568 14.296 211.408 13.76 211.184 13.36C210.976 12.96 210.696 12.76 210.344 12.76C209.864 12.76 209.456 13.104 209.12 13.792C208.784 14.48 208.576 15.648 208.496 17.296L208.592 17.464C208.56 17.64 208.544 17.824 208.544 18.016C208.544 18.192 208.544 18.384 208.544 18.592C208.544 19.696 208.688 20.576 208.976 21.232C209.28 21.888 209.656 22.352 210.104 22.624C210.552 22.896 211.016 23.032 211.496 23.032C211.768 23.032 212.072 22.992 212.408 22.912C212.744 22.832 213.096 22.664 213.464 22.408C213.832 22.152 214.184 21.776 214.52 21.28L214.928 21.424C214.752 22.048 214.448 22.664 214.016 23.272C213.6 23.864 213.064 24.36 212.408 24.76C211.752 25.144 210.96 25.336 210.032 25.336C208.976 25.336 208.032 25.12 207.2 24.688C206.368 24.24 205.704 23.544 205.208 22.6C204.728 21.64 204.488 20.392 204.488 18.856C204.488 17.336 204.752 16.088 205.28 15.112C205.808 14.136 206.528 13.416 207.44 12.952C208.352 12.472 209.376 12.232 210.512 12.232ZM221.19 12.232C221.894 12.232 222.502 12.312 223.014 12.472C223.526 12.632 223.902 12.784 224.142 12.928C224.702 13.28 225.038 13.056 225.15 12.256H225.654C225.622 12.72 225.598 13.28 225.582 13.936C225.566 14.576 225.558 15.44 225.558 16.528H225.054C224.99 15.936 224.846 15.352 224.622 14.776C224.414 14.2 224.102 13.728 223.686 13.36C223.27 12.976 222.726 12.784 222.054 12.784C221.622 12.784 221.254 12.912 220.95 13.168C220.662 13.424 220.518 13.776 220.518 14.224C220.518 14.704 220.662 15.128 220.95 15.496C221.238 15.864 221.606 16.216 222.054 16.552C222.518 16.888 222.982 17.248 223.446 17.632C223.958 18.016 224.414 18.408 224.814 18.808C225.23 19.192 225.558 19.616 225.798 20.08C226.054 20.528 226.182 21.072 226.182 21.712C226.182 22.432 225.966 23.064 225.534 23.608C225.102 24.152 224.534 24.576 223.83 24.88C223.126 25.184 222.342 25.336 221.478 25.336C220.95 25.336 220.486 25.28 220.086 25.168C219.702 25.072 219.382 24.944 219.126 24.784C218.886 24.672 218.67 24.576 218.478 24.496C218.302 24.416 218.126 24.36 217.95 24.328C217.79 24.312 217.654 24.384 217.542 24.544C217.43 24.704 217.342 24.912 217.278 25.168H216.774C216.806 24.656 216.83 24.032 216.846 23.296C216.862 22.56 216.87 21.584 216.87 20.368H217.374C217.47 21.232 217.646 21.992 217.902 22.648C218.174 23.304 218.534 23.824 218.982 24.208C219.43 24.576 219.958 24.76 220.566 24.76C220.838 24.76 221.086 24.712 221.31 24.616C221.55 24.504 221.742 24.336 221.886 24.112C222.046 23.888 222.126 23.6 222.126 23.248C222.126 22.544 221.902 21.96 221.454 21.496C221.006 21.016 220.454 20.496 219.798 19.936C219.286 19.504 218.806 19.08 218.358 18.664C217.926 18.248 217.566 17.792 217.278 17.296C217.006 16.8 216.87 16.24 216.87 15.616C216.87 14.896 217.07 14.288 217.47 13.792C217.886 13.28 218.422 12.896 219.078 12.64C219.734 12.368 220.438 12.232 221.19 12.232ZM232.393 12.232C233.097 12.232 233.705 12.312 234.217 12.472C234.729 12.632 235.105 12.784 235.345 12.928C235.905 13.28 236.241 13.056 236.353 12.256H236.857C236.825 12.72 236.801 13.28 236.785 13.936C236.769 14.576 236.761 15.44 236.761 16.528H236.257C236.193 15.936 236.049 15.352 235.825 14.776C235.617 14.2 235.305 13.728 234.889 13.36C234.473 12.976 233.929 12.784 233.257 12.784C232.825 12.784 232.457 12.912 232.153 13.168C231.865 13.424 231.721 13.776 231.721 14.224C231.721 14.704 231.865 15.128 232.153 15.496C232.441 15.864 232.809 16.216 233.257 16.552C233.721 16.888 234.185 17.248 234.649 17.632C235.161 18.016 235.617 18.408 236.017 18.808C236.433 19.192 236.761 19.616 237.001 20.08C237.257 20.528 237.385 21.072 237.385 21.712C237.385 22.432 237.169 23.064 236.737 23.608C236.305 24.152 235.737 24.576 235.033 24.88C234.329 25.184 233.545 25.336 232.681 25.336C232.153 25.336 231.689 25.28 231.289 25.168C230.905 25.072 230.585 24.944 230.329 24.784C230.089 24.672 229.873 24.576 229.681 24.496C229.505 24.416 229.329 24.36 229.153 24.328C228.993 24.312 228.857 24.384 228.745 24.544C228.633 24.704 228.545 24.912 228.481 25.168H227.977C228.009 24.656 228.033 24.032 228.049 23.296C228.065 22.56 228.073 21.584 228.073 20.368H228.577C228.673 21.232 228.849 21.992 229.105 22.648C229.377 23.304 229.737 23.824 230.185 24.208C230.633 24.576 231.161 24.76 231.769 24.76C232.041 24.76 232.289 24.712 232.513 24.616C232.753 24.504 232.945 24.336 233.089 24.112C233.249 23.888 233.329 23.6 233.329 23.248C233.329 22.544 233.105 21.96 232.657 21.496C232.209 21.016 231.657 20.496 231.001 19.936C230.489 19.504 230.009 19.08 229.561 18.664C229.129 18.248 228.769 17.792 228.481 17.296C228.209 16.8 228.073 16.24 228.073 15.616C228.073 14.896 228.273 14.288 228.673 13.792C229.089 13.28 229.625 12.896 230.281 12.64C230.937 12.368 231.641 12.232 232.393 12.232Z" fill="white"/>
</svg>
