<svg width="23" height="24" viewBox="0 0 23 24" fill="none" xmlns="http://www.w3.org/2000/svg">
<path d="M11.5 9.69981C13.4053 9.69981 14.95 8.15519 14.95 6.2498C14.95 4.34442 13.4053 2.7998 11.5 2.7998C9.59457 2.7998 8.04995 4.34442 8.04995 6.2498C8.04995 8.15519 9.59457 9.69981 11.5 9.69981Z" fill="white"/>
<path d="M3.9849 17.1674C3.76078 17.7516 3.96095 18.4064 4.45528 18.7901C6.40149 20.3006 8.84577 21.1998 11.5001 21.1998C14.1571 21.1998 16.6037 20.2987 18.5508 18.7855C19.0449 18.4015 19.2447 17.7465 19.0202 17.1624C17.8595 14.1429 14.9318 11.9998 11.5035 11.9998C8.07331 11.9998 5.14424 14.1452 3.9849 17.1674Z" fill="white"/>
</svg>
